<?xml version="1.0" encoding="UTF-8"?><svg xmlns="http://www.w3.org/2000/svg" xmlns:xlink="http://www.w3.org/1999/xlink" height="16.0" preserveAspectRatio="xMidYMid meet" version="1.0" viewBox="4.0 -0.0 8.1 16.0" width="8.1" zoomAndPan="magnify"><g id="change1_1"><path d="M11.5,5H9.238L10.964.686A.5.5,0,0,0,10.5,0h-4a.5.5,0,0,0-.48.362l-2,7A.5.5,0,0,0,4.5,8H7v7.5a.5.5,0,0,0,.405.491A.526.526,0,0,0,7.5,16a.5.5,0,0,0,.464-.314l4-10A.5.5,0,0,0,11.5,5Z" fill="#ffc107"/></g><g id="change2_1"><path d="M7.5,16a.517.517,0,0,1-.095-.009A.5.5,0,0,1,7,15.5V8H4.5a.5.5,0,0,1-.481-.638l2-7A.5.5,0,0,1,6.5,0h4a.5.5,0,0,1,.464.686L9.238,5H11.5a.5.5,0,0,1,.464.686l-4,10A.5.5,0,0,1,7.5,16ZM5.163,7H7.5a.5.5,0,0,1,.5.5v5.4L10.762,6H8.5a.5.5,0,0,1-.464-.686L9.762,1H6.877Z" fill="inherit"/></g></svg>